<?xml version="1.0" standalone="no"?>
<svg version="1.0" xmlns="http://www.w3.org/2000/svg"
 width="1024.000000pt" height="1024.000000pt" viewBox="0 0 340.16 340.16"
 preserveAspectRatio="xMidYMid meet">
<metadata>
Made by PropulsiveFox at propulsivefox.space
</metadata>
<g fill="#000000" stroke="none">
<path d="M340.16,170.08a170,170,0,0,0-87.1-148.49c2.51,8.39,8.21,31.45-3.85,31.73-49.6,1.14-49.78,17.31-59.56,18.41-17.78,2-63.53-2.7-63.53-2.7s-.28,26.17,11,37C149.7,117.9,196.71,133.2,223,163.13c12.38,14.09,21.32,36.69,21.66,65.46-32.34,16.41-71.41,8-80.31,6.14a124.23,124.23,0,0,1-18.5-5.37C119.32,172.5,97.55,97.09,108.52,13.43c-27.11,39.83-44.29,84-55.15,124.44A285.94,285.94,0,0,1,30.71,72.58a170.08,170.08,0,1,0,309.45,97.5Z"/>
</g>
</svg>
