<?xml version="1.0" standalone="no"?>
<!DOCTYPE svg PUBLIC "-//W3C//DTD SVG 20010904//EN"
 "http://www.w3.org/TR/2001/REC-SVG-20010904/DTD/svg10.dtd">
<svg version="1.0" xmlns="http://www.w3.org/2000/svg"
 width="2048.000000pt" height="2048.000000pt" viewBox="0 0 120 120"
 preserveAspectRatio="xMidYMid meet">
<metadata>
Made by PropulsiveFox in 2022 to be used in website propulsivefox.space
</metadata>
<g fill="#000000" stroke="none">
<path d=" M 100.4724 15.7057 A 60 60 0 1 1 8.0385 30 A 119.8513 119.8513 0 0 0 15.6077 42.7509 A 106.7801 106.7801 0 0 1 60 0 A 84.8528 84.8528 0 0 0 35.3008 65.1040 A 119.8513 119.8513 0 0 0 67.9651, 85.6834 A 38.6066 38.6066 0 0 0 60 35.4322 L 60 25.9539  A 94.0461 94.0461 0 0 1 102.4871 36.0982 A 42.9225 42.9225 0 0 0 100.4724 15.7057 Z" />
</g>
</svg>
